<?xml version="1.0" encoding="UTF-8" standalone="no"?>
<!-- Created with Inkscape (http://www.inkscape.org/) -->

<svg
   xmlns:dc="http://purl.org/dc/elements/1.1/"
   xmlns:cc="http://creativecommons.org/ns#"
   xmlns:rdf="http://www.w3.org/1999/02/22-rdf-syntax-ns#"
   xmlns:svg="http://www.w3.org/2000/svg"
   xmlns="http://www.w3.org/2000/svg"
   xmlns:sodipodi="http://sodipodi.sourceforge.net/DTD/sodipodi-0.dtd"
   xmlns:inkscape="http://www.inkscape.org/namespaces/inkscape"
   id="svg2"
   version="1.1"
   inkscape:version="0.48.4 r9939"
   width="466"
   height="258"
   sodipodi:docname="Bamboo_bic.svg"
   inkscape:export-filename="C:\wamp\www\I - FretMap-master\img\Bamboo_bic.png"
   inkscape:export-xdpi="91"
   inkscape:export-ydpi="91">
  <metadata
     id="metadata8">
    <rdf:RDF>
      <cc:Work
         rdf:about="">
        <dc:format>image/svg+xml</dc:format>
        <dc:type
           rdf:resource="http://purl.org/dc/dcmitype/StillImage" />
        <dc:title></dc:title>
      </cc:Work>
    </rdf:RDF>
  </metadata>
  <defs
     id="defs6" />
  <sodipodi:namedview
     pagecolor="#000000"
     bordercolor="#00ffff"
     borderopacity="1"
     objecttolerance="10"
     gridtolerance="10"
     guidetolerance="10"
     inkscape:pageopacity="1"
     inkscape:pageshadow="2"
     inkscape:window-width="1920"
     inkscape:window-height="1058"
     id="namedview4"
     showgrid="false"
     inkscape:zoom="0.25"
     inkscape:cx="787.63383"
     inkscape:cy="62.790892"
     inkscape:window-x="1912"
     inkscape:window-y="-8"
     inkscape:window-maximized="1"
     inkscape:current-layer="svg2"
     borderlayer="true"
     showborder="true" />
  <path
     style="fill:#73613d;fill-opacity:1"
     d="m 125.31935,753.51286 c 0.32024,-5.84017 0.65378,-11.74042 0.9811,-17.30979 5.27144,-89.69998 5.76698,-249.41059 0.86839,-280.09041 -0.76401,-4.78473 -1.38903,-12.26742 -1.38903,-16.62819 0,-4.36092 -1.32612,-16.62292 -2.9468,-27.24907 l -2.94676,-19.3204 5.93938,-6.30144 c 13.23703,-14.04405 34.28387,-21.02342 57.61674,-19.10629 14.45975,1.18802 31.26546,4.94557 39.39161,8.80733 l 5.45703,2.59342 -0.0122,17.99556 c -0.0122,29.6557 3.06135,95.63464 4.55947,97.82933 0.76768,1.12455 0.95803,4.41166 0.42278,7.30459 -1.03534,5.59929 1.74117,26.43117 3.99439,29.96835 0.74054,1.16264 2.2883,2.11388 3.43929,2.11388 1.63846,0 1.98698,-1.93666 1.60542,-8.91791 -0.40756,-7.45355 0.0513,-9.60527 2.79856,-13.10586 3.10867,-3.96199 3.99224,-4.15865 16.37333,-3.64524 11.51042,0.47751 22.36324,2.9112 31.59623,7.08527 1.56616,0.70809 5.61104,2.27284 8.98868,3.47719 7.03751,2.50957 17.91454,14.30528 16.68893,18.0987 -0.43401,1.34373 -2.41567,10.16184 -4.40342,19.59568 -1.98755,9.43384 -4.47259,20.19634 -5.52222,23.91668 -3.38028,11.98246 -4.90843,23.24707 -5.85006,43.12244 -0.50677,10.69604 -1.84497,27.05716 -2.97358,36.35804 -1.1286,9.30093 -2.72121,22.61818 -3.53922,29.59379 -0.9636,8.21852 -1.65409,37.89809 -1.78487,64.68575 z M 311.73559,519.48465 c -4.31272,-3.55056 -7.9382,-5.36663 -9.52145,-4.76985 -1.40612,0.53038 -3.71802,0.24939 -5.1374,-0.62385 -5.97738,-3.67742 -19.1172,-7.02978 -27.62166,-7.04703 -5.02119,-0.0145 -11.55795,-0.49525 -14.52636,-1.07806 l -5.39697,-1.05927 0.96731,-7.80026 c 0.53207,-4.29007 1.45499,-8.18058 2.05095,-8.64567 0.59584,-0.46494 1.42947,-8.45534 1.85233,-17.75622 0.87689,-19.28821 2.18633,-29.59379 3.76018,-29.59379 0.5964,0 1.51057,-3.99515 2.03141,-8.87814 2.78803,-26.1393 11.90668,-90.14355 18.12996,-127.25337 6.5882,-39.28668 9.74496,-56.51026 19.21644,-104.8466 5.20869,-26.58163 11.88946,-55.58544 13.15349,-57.10399 2.73248,-3.28295 19.11805,-5.03097 28.99583,-3.09335 9.96112,1.95386 23.62475,8.43644 26.52227,12.58316 1.10948,1.5879 0.55995,7.97508 -1.99699,23.21134 -4.40899,26.27111 -6.74864,42.33006 -11.31641,77.67171 -1.98344,15.34646 -4.24509,32.46863 -5.02574,38.04912 -1.84209,13.16709 -13.6961,108.62006 -22.0509,177.56282 -3.60681,29.7629 -6.68472,54.58466 -6.83975,55.15965 -0.15503,0.57475 -3.41605,-1.53498 -7.24654,-4.68835 z M 118.37889,356.02528 c -0.23641,-13.19396 0.11679,-46.43792 0.78579,-73.87563 2.41387,-99.0491 0.87009,-226.403389 -3.69995,-305.238893 -2.06658,-35.650044 -1.94227,-47.648741 0.61276,-59.174427 1.65832,-7.480125 2.70648,-9.034437 9.19629,-13.636959 10.3935,-7.371141 20.78443,-11.048031 34.2608,-12.123391 13.95636,-1.11354 25.7561,1.32179 39.72511,8.198706 l 10.1223,4.983077 0.84385,123.812337 c 1.12164,164.57233 5.18549,269.6207 12.37751,319.94657 1.45962,10.21423 2.48304,18.77445 2.27418,19.02253 -0.20916,0.24794 -7.05448,-0.75589 -15.21237,-2.23103 -21.86165,-3.95287 -53.55574,-2.52987 -69.2079,3.10751 -6.41408,2.31001 -13.90904,5.77487 -16.65519,7.6993 l -4.9932,3.49918 z M 364.97264,143.37972 c -13.87689,-8.90718 -37.89638,-12.90422 -50.90904,-8.47158 -3.62438,1.23451 -4.6179,1.06859 -4.6179,-0.77164 0,-10.49364 30.55536,-175.422886 48.39572,-261.22684 6.09156,-29.29786 11.51457,-56.31277 12.05088,-60.03316 2.08782,-14.48265 12.73592,-59.34315 14.7511,-62.14696 1.73303,-2.41111 4.49509,-2.95938 14.90698,-2.95938 11.85284,0 13.7475,0.50395 26.11898,6.94845 15.72512,8.19126 15.15406,5.97308 9.20809,35.7671 -2.27206,11.3848 -5.50541,28.30954 -7.18517,37.61047 -1.67989,9.30089 -3.9854,21.85718 -5.12345,27.9027 -1.138,6.04563 -6.21246,34.20202 -11.27649,62.5698 -12.00661,67.259264 -40.60103,225.43678 -41.01478,226.88404 -0.177,0.61906 -2.56418,-0.31367 -5.30492,-2.073 z M 117.5654,-105.48231 c -2.68483,-3.84248 -3.60714,-11.34319 -1.72579,-14.03574 2.87218,-4.11051 4.4103,-22.91116 5.18481,-63.37774 0.4004,-20.92705 1.28339,-38.8445 1.96208,-39.81652 1.16368,-1.66673 2.20411,-41.1785 5.67757,-215.53568 0.39755,-19.9447 0.85561,-39.81233 1.2764,-55.86274 l 73.02316,0.007 0.29461,21.61187 c 0.52951,38.83126 1.60644,101.80263 2.39307,139.93639 0.78664,38.1337 1.78968,87.59764 2.22894,109.9198 0.43938,22.32221 1.22101,57.70793 1.73697,78.63493 0.51613,20.9271 0.83844,38.27817 0.71645,38.55791 -0.12248,0.27935 -5.58187,-1.21218 -12.13292,-3.31568 -9.9356,-3.19006 -15.5709,-3.82894 -33.97934,-3.85233 -19.20334,-0.0193 -23.36229,0.47557 -32.03476,3.85059 -5.48153,2.13317 -10.67113,4.23381 -11.5324,4.66806 -0.8613,0.43449 -2.25135,-0.19139 -3.08893,-1.38974 z m 316.57526,-141.69968 c -10.06101,-8.26782 -18.6038,-10.96713 -34.64167,-10.94529 -17.11895,0.0242 -15.80894,3.20896 -11.70363,-28.45976 7.02441,-54.18861 22.39722,-141.14217 36.35566,-207.65271 l 59.69626,0.0199 c -2.10617,12.32051 -3.9902,24.59767 -4.89525,29.1489 -0.80666,4.05651 -5.99208,33.62954 -11.52312,65.71772 -16.85808,97.80207 -27.09687,156.26758 -27.41035,156.51818 -0.16399,0.13194 -2.80911,-1.82497 -5.8779,-4.3469 z"
     id="path3058"
     inkscape:connector-curvature="0"
     sodipodi:nodetypes="cscsscssccccccsccccccccsscccccscccccssssscscsscsccscscssscsscscccsccssscsssccscccsscsccsssscccsccccscccsccc"
     inkscape:export-filename="C:\wamp\www\I - FretMap-master\img\path3082.png"
     inkscape:export-xdpi="91"
     inkscape:export-ydpi="91" />
  <path
     sodipodi:nodetypes="cccccscccccccsccsccccsccccsccscsscsccsscsccccsccscscccsssscccssccsssccccsccccssccscsccscsccccccccsscsccsccccccscccsccccsccsccscccc"
     inkscape:connector-curvature="0"
     id="path3054"
     d="m 738.11388,752.7576 c 9.22408,-89.40748 20.10444,-157.30635 18.76933,-249.68457 -0.78151,-54.06502 -2.7641,-96.76717 -7.18408,-154.73333 l 53.70296,-169.48315 1.53523,1.5837 8.66125,-46.41545 c 4.67234,-25.03901 7.52417,-46.203508 7.9157,-46.649841 0.39144,-0.446091 5.19677,0.225704 10.67825,1.493077 5.48148,1.267131 15.73265,2.225962 22.78029,2.130412 l 12.81387,-0.173506 -12.62096,-1.328512 c -6.94144,-0.730903 -17.45054,-2.60497 -23.3535,-4.164743 l -10.73261,-2.836136 0.98781,-26.461578 c 0.54331,-14.553887 1.66438,-30.266548 2.49143,-34.916966 0.82692,-4.650465 1.5004,-11.1188382 1.49665,-14.3740968 0,-3.2553551 1.88253,-24.1823652 4.19158,-46.5046212 2.30893,-22.322207 4.4726,-43.249208 4.80809,-46.504515 1.30301,-12.647583 24.843,-196.083624 25.7159,-200.392354 0.3772,-1.86014 0.92234,-7.18704 1.21206,-11.83751 0.29013,-4.65042 1.22972,-11.87976 2.08855,-16.06518 0.85894,-4.18543 2.37965,-13.69771 3.37959,-21.13845 1.5902,-11.83278 2.17127,-13.48781 4.63621,-13.20324 1.54992,0.17931 10.13751,1.23079 19.08363,2.33707 8.94591,1.10648 20.86716,1.54972 26.4913,0.98508 l 10.2261,-1.02683 -4.63711,27.438 c -2.55043,15.09084 -5.39493,33.52572 -6.3211,40.96645 -0.92633,7.44074 -2.19504,15.05058 -2.81948,16.91073 -1.15566,3.44322 -14.34956,99.81586 -17.24794,125.98504 -1.93961,17.51312 -2.0575,18.37829 -3.22626,23.67503 -2.66429,12.074962 -13.72666,123.535219 -16.61593,167.416398 -1.99015,30.225902 -2.22974,31.696843 -5.31961,32.656012 -2.37074,0.73593 -2.37074,0.782617 9.7e-4,0.969367 3.19893,0.251802 3.17614,0.862749 -1.1649,31.250803 -5.86679,41.06727 -10.51227,79.3204 -9.79924,80.69082 0.36255,0.69707 0.13224,1.5228 -0.51226,1.83482 -2.43035,1.17617 -19.21177,152.01541 -25.17959,226.32562 -5.083,63.29147 -3.9161,57.20684 -11.08976,57.82494 -8.40033,0.72376 -8.36245,5.38742 0.0496,6.11034 3.32803,0.28612 6.05099,0.66648 6.05099,0.84555 0,0.17882 -1.5681,12.76826 -3.48465,27.97597 -2.72052,21.58874 -3.19493,29.55928 -2.16342,36.35804 0.72654,4.78917 1.65344,12.13213 2.05962,16.31751 0.40609,4.18543 1.11041,9.70256 1.56473,12.26031 0.77695,4.37349 0.52975,4.65042 -4.15154,4.65042 -2.73765,0 -5.34,-0.95119 -5.78309,-2.11383 -0.44296,-1.16259 -0.65606,-0.59186 -0.47368,1.26834 0.23764,2.42247 2.18877,4.04522 6.87666,5.7192 l 6.54506,2.33707 1.72404,27.25676 c 1.97489,31.22127 5.27493,62.12733 7.42448,69.53356 0.81003,2.79027 2.3521,8.11717 3.42716,11.83751 1.07509,3.72035 2.66473,10.05562 3.53283,14.07856 1.34699,6.24325 2.452,7.78538 7.54537,10.53201 8.26866,4.45883 11.55246,4.0949 15.68479,-1.73811 5.68124,-8.0194 7.96156,-19.77543 12.30887,-63.45821 7.04898,-70.82814 10.54942,-113.16028 12.64135,-152.87768 l 0.92645,-17.59175 5.69507,-2.46747 c 3.36193,-1.4565 13.41546,-2.82628 24.53989,-3.34356 16.92094,-0.78707 19.87356,-0.48355 28.92344,2.97271 7.0052,2.67544 12.03921,5.96564 16.50728,10.78908 l 6.42845,6.93979 -2.95132,16.91073 c -1.62308,9.30093 -3.94939,28.706 -5.16943,43.12244 -1.22004,14.41638 -2.98635,34.58247 -3.92534,44.81347 -1.11932,12.19671 -1.70723,51.06417 -1.70723,112.87919 l 0,23.42593 z M 975.61315,498.83772 c -1.77547,-1.71491 -7.54171,-4.88806 -12.81392,-7.05129 -8.74153,-3.58656 -12.00238,-3.93309 -37.00969,-3.93309 -20.72905,0 -27.26357,-0.49471 -26.76824,-2.02728 4.54083,-14.04873 13.68922,-105.76245 14.09772,-141.33067 0.12492,-10.95017 0.64524,-18.17951 1.15452,-16.06519 0.51637,2.14409 1.00361,-1.7646 1.10159,-8.8387 0.0969,-6.9757 0.77492,-21.81488 1.50732,-32.97601 0.73239,-11.16108 2.02128,-45.02482 2.86448,-75.25275 0.843,-30.22794 1.87012,-59.5921 2.2824,-65.2535 l 0.74981,-10.29359 9.52182,-4.06843 c 14.15583,-6.04828 33.38623,-5.82485 44.83175,0.52086 13.99062,7.75643 16.15705,10.25343 17.22999,19.86015 0.52195,4.67309 0.24781,16.67855 -0.60926,26.67854 -0.85692,10.00018 -1.77596,22.74795 -2.0422,28.32854 -0.26612,5.58054 -1.17207,17.37581 -2.01266,26.21161 -3.89588,40.95022 -7.46139,135.25538 -7.25069,191.77225 0.16032,43.10905 -0.26734,60.08096 -1.696,67.24912 l -1.91093,9.58791 -3.22781,-3.11824 z m 11.92986,-367.22471 c -4.4017,-3.03125 -16.57222,-6.35368 -27.21108,-7.42841 -8.8682,-0.89557 -16.65247,-0.0691 -33.52942,3.56105 l -5.05419,1.08705 1.08848,-14.9633 c 1.63077,-22.421284 10.83825,-187.602054 12.61698,-226.34743 0.85398,-18.60182 2.10775,-45.96577 2.78631,-60.80868 1.05427,-23.06423 1.61129,-27.32998 3.83204,-29.3459 3.25544,-2.95546 36.55691,-1.69833 45.3154,1.71052 l 5.69109,2.21499 -0.0924,58.3341 c -0.0513,32.08388 -0.16236,100.949362 -0.24781,153.034523 -0.085,52.085054 -0.0448,100.340877 0.0924,107.235037 0.25676,12.98542 -0.62086,14.93034 -5.28771,11.71645 z m -6.56642,-339.89822 c -3.52384,-0.87005 -13.96304,-1.35707 -23.19831,-1.0826 -16.27619,0.48398 -16.81551,0.38519 -17.57725,-3.2193 -0.82362,-3.89825 -0.56194,-7.86078 2.88198,-43.63223 5.51982,-57.33419 9.35617,-150.03806 9.39503,-227.02676 l 0.004,-10.60275 52.32969,-0.8606 c -1.685,67.39135 -6.04938,183.53456 -9.62458,256.24638 -0.75461,15.34651 -1.37824,28.85394 -1.38577,30.01653 -0.0122,2.40136 -3.57393,2.44616 -12.82771,0.16046 z m -81.15474,-141.15582 c -1.95764,-0.32864 -9.00532,-1.45905 -15.66143,-2.51193 -6.65611,-1.05283 -12.47928,-2.1713 -12.94047,-2.48569 -0.46115,-0.31415 0.0122,-5.35851 1.04417,-11.20927 2.67104,-15.09185 9.71013,-73.59202 13.99762,-116.32984 0.41692,-4.15582 0.83262,-8.26142 1.23338,-12.18532 l 49.50959,-0.3344 c -0.89719,12.97843 -1.98974,29.28864 -3.09743,46.34117 -2.38649,36.7386 -4.78527,73.61368 -5.33044,81.94457 -0.93439,14.27555 -1.1964,15.21476 -4.55093,16.31955 -3.70524,1.2201 -18.03229,1.48713 -24.20406,0.45092 z"
     style="opacity:0.62015518;fill:#73613d;fill-opacity:1"
     inkscape:export-filename="C:\wamp\www\I - FretMap-master\img\path3082.png"
     inkscape:export-xdpi="91"
     inkscape:export-ydpi="91" />
  <path
     style="fill:#73613d;fill-opacity:1"
     d="m -513.30273,755.24295 c 0.19654,-89.64493 -6.052,-153.65841 -19.71779,-216.13463 -2.37952,-10.8785 -4.32643,-20.98993 -4.32643,-22.46981 0,-4.8321 12.45824,-17.38287 21.04013,-21.19674 15.70502,-6.97908 40.46943,-6.54584 46.6681,0.8166 6.6544,7.90374 12.57094,41.68653 17.63263,100.67841 3.36389,39.20486 6.75909,110.5064 8.34906,159.14046 z m -27.38719,-272.03089 c -8.25417,-68.04933 -32.11134,-250.3889 -40.10338,-306.50719 -5.16572,-36.27356 -9.73504,-68.61537 -10.15375,-71.87068 -0.72967,-5.671014 -0.44296,-6.143155 6.84248,-11.276444 11.56869,-8.151147 20.25651,-10.949198 33.99594,-10.949198 18.0773,0 19.3644,0.645503 21.88692,10.976119 19.41701,79.517693 43.51214,218.809103 53.43082,308.878623 2.73907,24.87164 7.20853,75.10361 7.20853,81.01444 0,2.40894 -2.43577,2.74769 -19.57681,2.72246 -21.78734,-0.0338 -29.69962,2.31069 -42.14061,12.47741 -3.53353,2.88751 -6.97647,5.25011 -7.65093,5.25011 -0.67457,0 -2.35718,-9.32206 -3.73921,-20.71565 z m -54.2031,-393.217003 c -0.42054,-1.604527 -5.29072,-27.649109 -10.82246,-57.877041 -5.53178,-30.2279802 -15.51478,-84.257809 -22.18457,-120.066281 -6.66966,-35.808525 -14.95553,-80.706575 -18.413,-99.773425 -3.45747,-19.06685 -10.48464,-57.46473 -15.61578,-85.32872 -5.13109,-27.86384 -9.05997,-51.49523 -8.73066,-52.51428 0.86908,-2.68998 15.84764,-11.80489 26.12911,-15.90033 15.97993,-6.36519 33.72633,-4.02845 35.50363,4.67497 0.50331,2.46476 4.98672,23.50611 9.96323,46.7584 20.87827,97.55365 40.69295,196.485397 49.63777,247.835199 10.06089,57.756311 20.56161,120.608116 20.21838,121.016026 -0.212,0.252285 -3.25178,-0.333965 -6.75442,-1.302316 -14.57165,-4.028307 -39.17945,1.158581 -52.35129,11.034598 -5.23608,3.925991 -5.89136,4.069774 -6.57994,1.4432 z m -76.8978,-424.496407 c -0.41786,-1.58438 -2.68862,-14.04521 -5.04642,-27.69116 -2.35788,-13.64595 -9.41764,-53.53212 -15.68861,-88.63613 -2.93416,-16.42498 -5.6187,-31.67521 -7.64486,-43.38144 l 67.42572,0.21607 c 7.52307,42.96977 16.24968,100.9142 19.25472,128.43711 0.8473,7.76034 1.36454,8.91076 3.68229,8.19088 1.90447,-0.59152 2.69647,0.0507 2.69647,2.18908 0,4.04711 -3.87207,5.06142 -19.42689,5.08897 -15.88308,0.029 -28.94872,4.37411 -38.1035,12.67412 -5.48637,4.97409 -6.49681,5.38572 -7.14892,2.9125 z"
     id="path3056"
     inkscape:connector-curvature="0"
     sodipodi:nodetypes="csscssccsscssssscssscsssscssssccsccssccssscsc"
     inkscape:export-filename="C:\wamp\www\I - FretMap-master\img\path3082.png"
     inkscape:export-xdpi="91"
     inkscape:export-ydpi="91" />
  <path
     style="fill:#73613d;fill-opacity:1"
     d="m -306.47483,752.75054 c -4.03471,-32.94971 -10.60785,-88.15233 -17.73537,-149.14993 l -20.29952,-173.72407 11.45897,-1.58988 c 6.3025,-0.87435 15.03069,-2.8314 19.39616,-4.34801 l 7.93719,-2.75804 13.16154,107.64402 c 15.49908,126.7621 25.98128,201.22736 31.51086,223.85545 z m -32.68531,-329.60896 -5.75663,-1.03626 -8.05156,-69.45801 c -4.42825,-38.20195 -7.84373,-70.02489 -7.58962,-70.71752 0.25416,-0.69272 -7.04827,-57.80744 -16.22714,-126.92149 -9.17899,-69.113949 -16.52659,-125.919693 -16.32782,-126.235051 0.19874,-0.315115 3.48901,-0.321881 7.31148,-0.0145 4.52297,0.362963 9.57613,-0.450441 14.46909,-2.334754 9.12861,-3.512039 8.06682,-5.948384 13.69516,31.422616 2.27649,15.115634 8.66418,57.078429 14.19487,93.250489 14.35689,93.89817 33.94443,237.11659 34.47772,252.091 0.45017,12.64396 0.41957,12.75643 -4.23742,15.57516 -5.95524,3.60435 -18.50268,5.72104 -25.95822,4.3789 z m -51.22162,-397.273386 -3.17741,-0.928044 -8.95938,-80.179128 c -8.27289,-74.034772 -26.1877,-207.040382 -37.52648,-278.608832 -2.60924,-16.46831 -4.58354,-30.46645 -4.38747,-31.10671 0.19637,-0.6405 2.48752,-0.96432 5.09254,-0.71972 2.60477,0.24407 9.39157,-0.96349 15.08181,-2.68337 5.69018,-1.72042 10.53429,-2.9603 10.76479,-2.75528 1.11688,0.99339 22.43711,154.93286 36.097,260.63386 17.53205,135.66238 17.19448,128.070418 5.91473,133.020243 -7.86175,3.449741 -14.48736,4.616393 -18.9,3.328238 z m -53.72062,-396.615544 c -1.04252,-2.21881 -8.31685,-74.07949 -12.76464,-123.51085 l 27.47725,-0.43696 3.21008,26.50659 c 5.60564,46.2604 10.74148,85.63976 11.41585,87.50943 1.64089,4.54797 -0.84884,6.08256 -15.82626,9.75547 -10.80561,2.6497 -12.34392,2.66982 -13.51528,0.17684 z"
     id="path3060"
     inkscape:connector-curvature="0"
     sodipodi:nodetypes="cscsccsccccscsccsssssccccsscccssccccccccccc"
     inkscape:transform-center-x="-83.718836"
     inkscape:transform-center-y="625.79597"
     inkscape:export-filename="C:\wamp\www\I - FretMap-master\img\path3082.png"
     inkscape:export-xdpi="91"
     inkscape:export-ydpi="91" />
  <path
     style="fill:#bf894b;fill-opacity:1;stroke:#000000;stroke-width:4.434659;stroke-opacity:1"
     d="m -636.66794,755.57126 c -0.9035,-96.41372 5.26497,-170.66401 19.63601,-236.36461 2.37957,-10.87873 4.32643,-20.98998 4.32643,-22.46986 0,-4.83209 -12.45824,-17.38306 -21.04013,-21.19683 -15.70502,-6.97894 -40.46944,-6.54589 -46.6681,0.81679 -6.6544,7.9035 -12.57093,41.68663 -17.63263,100.67842 -3.66123,42.66991 -8.21165,132.97639 -9.42857,179.38255 z m 27.30541,-292.26087 c 8.25417,-68.04947 32.11134,-250.38899 40.10338,-306.50728 5.16572,-36.27356 9.73503,-68.615375 10.15374,-71.870682 0.72967,-5.671015 0.44297,-6.143156 -6.84247,-11.276445 -11.5687,-8.151147 -20.25651,-10.949198 -33.99595,-10.949198 -18.0773,0 -19.36439,0.645503 -21.88691,10.976118 -19.41701,79.517687 -43.51214,218.809297 -53.43082,308.878667 -2.73907,24.87141 -7.20853,75.10381 -7.20853,81.01464 0,2.40879 2.43576,2.74759 19.5768,2.72246 21.78735,-0.0483 29.69963,2.31068 42.14062,12.47702 3.53352,2.88776 6.97647,5.25016 7.65092,5.25016 0.67458,0 2.35719,-9.32201 3.73922,-20.71546 z m 54.20309,-393.217096 c 0.42054,-1.604528 5.29073,-27.649109 10.82246,-57.877041 5.53178,-30.228 15.51479,-84.257829 22.18457,-120.066303 6.66966,-35.80852 14.95553,-80.70657 18.413,-99.77343 3.45748,-19.06685 10.48465,-57.46473 15.61578,-85.32871 5.1311,-27.86385 9.05998,-51.49523 8.73066,-52.51428 -0.86907,-2.68999 -15.84763,-11.80489 -26.12911,-15.90033 -15.97992,-6.36519 -33.72632,-4.02845 -35.50363,4.67497 -0.5033,2.46476 -4.98672,23.50611 -9.96323,46.75839 -20.87826,97.55365 -40.69295,196.4854 -49.63776,247.835206 -10.06089,57.7563302 -20.56161,120.608135 -20.21838,121.016045 0.212,0.252286 3.25178,-0.333964 6.75442,-1.302316 14.57165,-4.028306 39.17945,1.158581 52.35128,11.034599 5.23608,3.92599 5.89137,4.069774 6.57994,1.4432 z m 76.89781,-424.496434 c 0.41785,-1.58437 2.68861,-14.0452 5.04641,-27.69115 2.35788,-13.64595 9.41765,-53.53212 15.68862,-88.63613 1.76853,-9.89999 3.44638,-19.37321 4.94404,-27.90084 l -67.45608,0.67094 c -6.79196,40.42237 -13.87688,88.26107 -16.52355,112.50164 -0.8473,7.76034 -1.36453,8.91076 -3.68229,8.19087 -1.90446,-0.59152 -2.69647,0.0507 -2.69647,2.18909 0,4.04711 3.87207,5.06142 19.4269,5.08897 15.88308,0.029 28.94871,4.37411 38.1035,12.67412 5.48636,4.97408 6.4968,5.38571 7.14892,2.91249 z"
     id="path3064"
     inkscape:connector-curvature="0"
     sodipodi:nodetypes="csscssccsscssssscssscsssscssssccsccssccssscsc"
     inkscape:export-filename="C:\wamp\www\I - FretMap-master\img\path3082.png"
     inkscape:export-xdpi="91"
     inkscape:export-ydpi="91" />
  <path
     style="fill:#73613d;fill-opacity:1"
     d="m 1177.336,512.28136 c -16.921,-0.78682 -18.9295,-0.3765 -27.9794,3.07962 -7.0052,2.67559 -12.0392,5.96593 -16.5073,10.78932 l -6.4284,6.93979 2.9513,16.91039 c 1.6231,9.30123 3.9494,28.70644 5.1694,43.12249 1.2201,14.41653 3.6601,34.5267 3.9254,44.81357 l 2.966,115.0154 35.9393,-0.21749 z m -48.1722,8.1176 c 1.7755,-1.71476 7.5417,-4.88767 12.814,-7.05095 8.5675,-3.51522 11.8703,-3.91806 35.5418,-3.9327 l 0.1547,-354.75682 -5.1984,-1.34983 c -14.6968,-3.81618 -33.3863,-5.82485 -44.8318,0.52086 -13.9906,7.75643 -16.157,10.25343 -17.23,19.86015 -0.5219,4.67308 -0.2478,16.67855 0.6093,26.67853 0.8569,10.00018 1.7759,22.74796 2.0422,28.32854 0.2661,5.58054 1.172,17.37582 2.0126,26.21162 3.8959,40.95007 7.4614,135.25562 7.2507,191.77244 -0.1603,43.10895 0.2674,60.08072 1.696,67.24911 l 1.911,9.58783 3.2278,-3.11829 z M 1117.234,153.17445 c 4.4017,-3.03125 16.5722,-6.35369 27.2111,-7.42841 8.8682,-0.89557 16.6524,-0.0691 33.5294,3.56104 l -0.4871,-88.886477 c -3.212,-56.691685 -7.0766,-127.647438 -8.1642,-151.337164 -0.854,-18.601819 -2.1077,-45.965769 -2.7863,-60.808679 -1.0543,-23.06423 -1.6113,-27.32998 -3.832,-29.3459 -3.2555,-2.95546 -36.557,-1.69833 -45.3155,1.71052 l -5.691,2.21499 0.092,58.3341 c 0.051,32.083878 0.1624,100.949357 0.2478,153.034488 0.085,52.085055 0.045,100.340872 -0.092,107.235042 -0.2568,12.98541 0.6208,14.93033 5.2877,11.71645 z m 6.5664,-339.89819 c 3.5238,-0.87005 13.963,-1.35707 23.1983,-1.0826 16.2762,0.48398 16.8155,0.38519 17.5772,-3.2193 0.8237,-3.89825 0.562,-7.86078 -2.8819,-43.63223 -5.5198,-57.33419 -9.3562,-150.03806 -9.3951,-227.02676 l -0.016,-32.37784 -52.7814,-0.0168 0.6411,25.63034 c 1.6856,67.39135 5.8702,178.83551 9.4454,251.54733 0.7546,15.34651 1.3782,28.85394 1.3857,30.01653 0.012,2.40136 3.574,2.44616 12.8278,0.16046 z"
     id="path3070"
     inkscape:connector-curvature="0"
     sodipodi:nodetypes="cssccsscccccccscsccscscccccccsscsccsccccccscccssccc"
     inkscape:export-filename="C:\wamp\www\I - FretMap-master\img\path3082.png"
     inkscape:export-xdpi="91"
     inkscape:export-ydpi="91" />
  <path
     sodipodi:nodetypes="ccsccsccccscsccsssssccccsccsccc"
     inkscape:connector-curvature="0"
     id="path3076"
     d="m 23.127862,755.87024 1.019675,-256.15029 16.84355,0.52956 c 9.264038,0.2895 22.223998,-0.3881 28.80007,-1.50275 l 11.95648,-2.03007 0.211593,158.86163 c 0.04883,36.56016 0.169681,70.18563 0.362557,100.8814 z m 9.93023,-264.5676 -8.140966,-2.91733 0.501028,-102.39773 c 0.275478,-56.31847 0.900573,-103.1657 1.388947,-104.10447 0.488536,-0.93882 -0.08504,-85.30741 -1.273791,-187.485571 -1.188991,-102.1780192 -1.881796,-186.111197 -1.539381,-186.51802 0.342211,-0.40646 5.100169,0.395006 10.572457,1.781239 6.475239,1.640171 13.922709,1.707616 21.325378,0.192935 13.810646,-2.826237 12.701532,-6.610107 14.306018,48.80321 0.648859,22.413233 2.548477,84.651868 4.221284,138.308053 4.342381,139.284554 7.625493,351.158314 5.779058,372.937584 -1.559117,18.38979 -1.622961,18.54512 -8.848217,21.47159 -9.239338,3.74175 -27.748452,3.70792 -38.291937,-0.0706 z M 28.45,-95.646782 24.018832,-97.771926 25.081396,-215.89231 c 0.646864,-71.90947 -0.284837,-185.22045 -2.107265,-282.27942 l 45.56651,-0.47772 c 1.045474,67.11275 1.997847,145.66585 2.514338,209.09404 1.632238,200.443832 2.471367,189.38535 -14.700437,193.759528 -11.96832,3.048486 -21.750639,3.101326 -27.904542,0.15113 z"
     style="fill:#f2cb80;fill-opacity:1;stroke:#000000;stroke-width:4.434659;stroke-opacity:1"
     inkscape:export-filename="C:\wamp\www\I - FretMap-master\img\path3082.png"
     inkscape:export-xdpi="91"
     inkscape:export-ydpi="91" />
  <path
     style="fill:#f2cb80;fill-opacity:1;stroke:#000000;stroke-width:4.434659;stroke-opacity:1"
     d="m -441.61855,755.0795 c 1.02493,-5.42376 1.64664,-9.22592 1.64664,-10.27175 0,-7.55707 -19.48386,-27.18596 -32.90538,-33.15043 -24.56162,-10.9146 -63.29126,-10.237 -72.98585,1.27737 -4.70707,5.59064 -9.17814,19.46109 -13.39618,41.51429 z m 6.87483,-62.54844 c 12.90897,-106.42487 50.22001,-391.59183 62.71902,-479.35713 8.07888,-56.72944 15.22495,-107.30991 15.87979,-112.40101 1.14118,-8.869095 0.69276,-9.607489 -10.70117,-17.635635 -18.09268,-12.747822 -31.67985,-17.123818 -53.16742,-17.123818 -28.2717,0 -30.28464,1.009529 -34.22967,17.165962 -30.36696,124.360411 -68.05016,342.203341 -83.5623,483.065791 -4.28375,38.89723 -11.27369,117.45739 -11.27369,126.70158 0,3.76718 3.80941,4.29703 30.61684,4.25774 34.07399,-0.0754 46.44829,3.61377 65.90518,19.51323 5.52616,4.51625 10.91072,8.21088 11.96551,8.21088 1.055,0 3.68648,-14.57897 5.84791,-32.39759 z m 84.77004,-614.965567 c 0.65773,-2.509373 8.27436,-43.241379 16.92563,-90.515906 8.65135,-47.274566 24.26413,-131.773637 34.69523,-187.775747 10.43089,-56.00215 23.38947,-126.21978 28.79673,-156.03908 5.40723,-29.81929 16.43587,-89.86107 24.42205,-133.44849 l 1.45535,-7.9432 -103.49385,-1.18384 c -31.26592,146.81013 -60.4524,292.91715 -73.90894,370.16742 -15.73443,90.327098 -32.15699,188.623184 -31.6202,189.2611 0.33163,0.394378 5.08556,-0.52226 10.56347,-2.036699 22.78911,-6.300038 61.27409,1.811913 81.87394,17.257355 8.1889,6.140015 9.21371,6.364897 10.29059,2.257087 z"
     id="path3080"
     inkscape:connector-curvature="0"
     sodipodi:nodetypes="cscsccsscssssscssscssssccsccsc"
     inkscape:export-filename="C:\wamp\www\I - FretMap-master\img\path3082.png"
     inkscape:export-xdpi="91"
     inkscape:export-ydpi="91" />
  <path
     sodipodi:nodetypes="cscsccsccccscsccsssssccccsscccssccc"
     inkscape:connector-curvature="0"
     id="path3856"
     d="m -162.90926,756.20826 c 1.57116,-16.71731 3.21256,-34.09646 4.89981,-51.87095 l 20.39746,-214.88118 14.09662,2.25728 c 7.75339,1.24016 18.68258,2.06608 24.287033,1.8383 l 10.190124,-0.41709 -11.941917,133.35782 c -4.42168,49.37801 -8.10703,92.40016 -11.05749,129.08419 z m 33.41826,-272.85788 -6.61026,-3.32476 8.23236,-85.89008 c 4.52793,-47.23928 8.62637,-86.49165 9.10787,-87.22705 0.48166,-0.73535 6.43687,-71.60892 13.23409,-157.49663 6.797189,-85.887515 12.618972,-156.4085147 12.93742,-156.7131424 0.318204,-0.3044827 4.2505,0.8804867 8.7377,2.6329055 5.309646,2.0735273 11.555307,2.9316369 17.884018,2.4570788 11.807103,-0.8857547 11.164877,-4.1809826 8.284077,42.5009541 -1.165309,18.881601 -4.319105,71.323914 -7.008495,116.538394 -6.981314,117.37107 -20.389526,295.55334 -23.600819,313.63435 -2.711526,15.267 -2.776998,15.39049 -9.064489,17.06911 -8.040172,2.14612 -23.572582,0.12565 -32.133682,-4.18026 z m 40.91052,-493.1317466 -3.557044,-2.2605714 9.903212,-99.025912 c 9.144203,-91.43732 21.925855,-256.81367 26.773943,-346.41636 1.115422,-20.61815 2.354462,-38.05534 2.753153,-38.74908 0.399178,-0.69393 3.219309,-0.25006 6.268285,0.98656 3.048773,1.23608 11.466275,2.25402 18.705529,2.26254 7.239295,0.008 13.34449,0.28304 13.567111,0.6115 1.07884,1.59157 -13.014812,193.20902 -23.861974,324.42618 -13.921692,168.41127667 -12.373888,159.2200068 -27.120101,161.04323 -10.277773,1.2705629 -18.492268,0.2619518 -23.432277,-2.8763467 z"
     style="fill:#bf894b;fill-opacity:1;stroke:#000000;stroke-width:4.434659;stroke-opacity:1"
     inkscape:export-filename="C:\wamp\www\I - FretMap-master\img\path3082.png"
     inkscape:export-xdpi="91"
     inkscape:export-ydpi="91" />
  <path
     style="fill:#bf894b;fill-opacity:1;stroke:#000000;stroke-width:4.434659;stroke-opacity:1"
     d="m 1019.1311,755.366 c 8.8341,-96.55654 9.0423,-177.92979 0.8148,-249.39865 -1.5436,-13.40869 -2.6616,-25.8268 -2.4845,-27.59623 0.5781,-5.77749 16.9753,-18.68132 27.6925,-21.7928 19.6126,-5.69363 49.1703,-0.99614 55.7009,8.8532 7.0108,10.57295 10.043,51.96428 9.0373,123.35199 -0.5397,38.31306 -3.6318,111.08588 -6.865,167.27903 z m -1.6677,-317.5253 c -1.7277,-82.75632 -8.4375,-304.79681 -11.2793,-373.243416 -1.8366,-44.242305 -3.4305,-83.682917 -3.5417,-87.645745 -0.1941,-6.903735 0.2055,-7.419848 9.5302,-12.327795 14.8074,-7.793327 25.5296,-9.672497 41.9572,-7.353562 21.6141,3.051062 23.0758,4.040109 24.8559,16.817615 13.7025,98.352333 25.847,268.962843 26.9305,378.328203 0.2995,30.19975 -0.3666,91.01433 -1.0737,98.08156 -0.288,2.88012 -3.241,2.87413 -23.7327,-0.0483 -26.0441,-3.73503 -35.7867,-2.24993 -51.878,7.80568 -4.5704,2.85634 -8.9695,5.09985 -9.7759,4.98598 -0.8066,-0.11406 -1.7032,-11.54367 -1.9925,-25.39947 z M 999.69969,-41.456843 c -0.31047,-1.989447 -3.01789,-33.951572 -6.01547,-71.027177 -2.99762,-37.07567 -8.46975,-103.36125 -12.16034,-147.3013 -3.69047,-43.94008 -8.22589,-99.02083 -10.07867,-122.40162 -1.85278,-23.38079 -5.66093,-70.47718 -8.4623,-104.65873 -0.30193,-3.68418 -0.59308,-7.30722 -0.87157,-10.84094 l 78.06796,1.14775 c 13.2918,120.16364 25.1471,241.7955 29.6985,304.70148 5.1194,70.75429 10.1551,147.675198 9.6959,148.105012 -0.2836,0.265963 -3.848,-0.94814 -7.9201,-2.697132 -16.9407,-7.275876 -46.9835,-5.22748 -63.9139,4.357611 -6.7303,3.810365 -7.5309,3.871701 -8.04001,0.615046 z"
     id="path3858"
     inkscape:connector-curvature="0"
     sodipodi:nodetypes="csscsscccscssssscsssccssscccccscc"
     inkscape:export-filename="C:\wamp\www\I - FretMap-master\img\path3082.png"
     inkscape:export-xdpi="91"
     inkscape:export-ydpi="91" />
  <path
     sodipodi:nodetypes="cscssssccsccssscssssccscccsccsscscc"
     inkscape:connector-curvature="0"
     id="path3860"
     d="m 558.49324,739.93487 c 2.00448,-96.01263 9.78911,-353.62072 13.08606,-433.03145 2.13087,-51.32931 3.98011,-97.0877 4.10906,-101.68529 0.22543,-8.00964 -0.23845,-8.6084 -11.05684,-14.30252 -17.17921,-9.04169 -29.61906,-11.22188 -48.67803,-8.53146 -25.07644,3.53978 -26.77224,4.68725 -28.83747,19.51149 -15.89744,114.10693 -29.98739,312.0467 -31.24442,438.93078 -0.3475,35.03731 -5.33048,116.48818 1.60535,115.9287 l 100.61341,0.086 c 0.3418,-5.05847 0.40284,-9.97258 0.40284,-16.90541 z m 20.60922,-556.07383 c 0.36011,-2.30818 3.50129,-39.39016 6.97903,-82.40472 3.47782,-43.014613 9.82651,-119.918179 14.10826,-170.896773 4.28163,-50.978627 9.54355,-114.882497 11.69313,-142.008557 2.14958,-27.12604 6.56773,-81.76658 9.81784,-121.4235 3.25011,-39.65671 5.42004,-73.20687 4.82184,-74.55599 -1.57901,-3.56129 -23.62201,-13.27221 -38.4527,-16.94001 -23.05035,-5.7005 -47.34337,1.01599 -48.60072,13.43717 -0.35604,3.5176 -3.65474,33.58351 -7.33048,66.81293 C 516.71763,-204.70633 502.96334,-63.590857 497.68282,9.3917165 491.7434,91.479821 485.90107,180.7223 486.43384,181.22098 c 0.32919,0.30835 4.46441,-1.10005 9.18876,-3.12921 19.65432,-8.44133 54.50958,-6.06482 74.15197,5.05566 7.80836,4.42071 8.73726,4.49185 9.32789,0.71361 z m 47.74897,-603.90777 c 0.35971,-2.27962 1.77994,-20.00962 3.15664,-39.40058 0.54681,-7.70194 1.54797,-21.29159 2.79609,-38.00504 l -89.87197,-0.0701 c -0.70514,18.09008 -1.15799,33.97185 -1.26435,45.81247 -0.0981,10.93085 -0.65602,12.62796 -3.97108,12.08321 -2.72385,-0.44764 -3.7334,0.59838 -3.4366,3.56466 0.56162,5.61403 6.07379,6.26284 27.65487,3.25518 22.03657,-3.06993 40.76395,0.39901 54.61533,10.11993 8.30096,5.8256 9.75974,6.19874 10.32107,2.64026 z"
     style="fill:#bf894b;fill-opacity:1;stroke:#000000;stroke-width:5.14502573;stroke-opacity:1"
     inkscape:export-filename="C:\wamp\www\I - FretMap-master\img\path3082.png"
     inkscape:export-xdpi="91"
     inkscape:export-ydpi="91" />
  <g
     inkscape:groupmode="layer"
     id="layer1"
     inkscape:label="fond" />
  <path
     style="fill:#73613d;fill-opacity:1"
     d="m -210.54869,753.3396 2.31361,-55.0194 14.18765,1.20933 c 7.80339,0.66377 18.75468,0.67899 24.33626,0.0387 l 10.14846,-1.17056 -1.99333,54.27501 z m 10.09841,-61.71449 -6.77192,-2.82894 3.70927,-86.33249 c 2.04024,-47.48263 4.07093,-86.9621 4.51291,-87.73172 0.44211,-0.76957 2.66665,-71.94622 4.94368,-158.17012 2.27698,-86.22375 4.38681,-157.0386 4.68866,-157.36618 0.30152,-0.3272 4.28842,0.56406 8.85887,1.98087 5.40812,1.67645 11.68666,2.07058 17.97818,1.12838 11.73764,-1.75808 10.92378,-4.99937 10.4982,41.80509 -0.17213,18.93119 -0.56793,71.50496 -0.87942,116.83064 -0.80869,117.65971 -4.84064,296.48816 -7.09687,314.77172 -1.90511,15.43805 -1.96399,15.56617 -8.15118,17.70697 -7.91192,2.73716 -23.52017,1.87049 -32.29055,-1.7933 z m 14.95369,-495.20155 -3.66874,-1.99282 4.68756,-99.566521 c 4.32822,-91.9364772 8.40685,-257.937499 8.54357,-347.724879 0.0326,-20.66063 0.35279,-38.15565 0.71441,-38.87755 0.36174,-0.72213 3.19994,-0.4879 6.30788,0.5206 3.10769,1.00797 11.56226,1.4008 18.78788,0.87338 7.22563,-0.52805 13.33339,-0.70539 13.57281,-0.39404 1.16031,1.50861 -2.85077,193.796856 -6.79116,325.561929 -5.0572,169.114481 -3.99472,159.826501 -18.61662,162.737791 -10.1911,2.02897 -18.44254,1.63058 -23.53767,-1.1361 z m 11.79942,-495.08807 c -1.01016,-3.60576 7.37141,-148.62118 11.3031,-195.59139 l 32.40773,0.16157 -3.1166,82.30466 c -2.17469,57.5656 -3.58728,106.66794 -3.1328,109.11696 1.10606,5.95737 -2.20704,7.13542 -21.06024,7.48913 -13.60186,0.25499 -15.46904,-0.14122 -16.40469,-3.48112 z"
     id="path3854"
     inkscape:connector-curvature="0"
     sodipodi:nodetypes="ccsccccccscsccsssssccccsscccssccccccccccc"
     inkscape:export-filename="C:\wamp\www\I - FretMap-master\img\path3082.png"
     inkscape:export-xdpi="91"
     inkscape:export-ydpi="91" />
  <path
     style="fill:#f2cb80;fill-opacity:1;stroke:#000000;stroke-width:4.434659;stroke-opacity:1"
     d="m 803.33044,755.5716 c -0.86648,-78.44929 0.58631,-148.46862 3.96737,-169.64423 0.89317,-5.5935 1.62386,-14.3409 1.62386,-19.43891 0,-5.098 1.55024,-19.43271 3.44489,-31.85541 l 3.44486,-22.586 -6.94334,-7.3665 c -15.47459,-16.41838 -40.07913,-24.5776 -67.3561,-22.33622 -16.90401,1.38878 -36.55048,5.78169 -46.05028,10.29606 l -6.37946,3.03177 0.0163,21.0373 c 0.0163,34.66912 -3.57885,111.80049 -5.33019,114.36617 -0.89744,1.31473 -1.11998,5.15789 -0.49428,8.53943 1.21036,6.54609 -2.03548,30.89944 -4.66957,35.03412 -0.8657,1.3594 -2.67511,2.47129 -4.02064,2.47129 -1.91545,0 -2.32289,-2.26395 -1.87679,-10.42539 0.47645,-8.71348 -0.0598,-11.22889 -3.27164,-15.32119 -3.63415,-4.6319 -4.66709,-4.86186 -19.14104,-4.26125 -13.45611,0.55937 -26.14344,3.403 -36.93717,8.28294 -1.8309,0.82771 -6.55952,2.65664 -10.50809,4.0646 -8.22711,2.9341 -20.94276,16.72355 -19.50999,21.15826 0.50738,1.5707 2.824,11.87971 5.14778,22.90803 2.3235,11.02884 5.22863,23.61031 6.45567,27.95968 2.3016,8.15854 3.77331,13.99369 4.89822,23.73791 z M 591.53242,660.01163 c 5.04173,-4.15106 9.28007,-6.27379 11.13094,-5.57599 1.64379,0.61979 4.34649,0.29385 6.00579,-0.72941 6.98778,-4.2991 22.34871,-8.21799 32.29074,-8.23833 5.86996,0 13.51169,-0.5791 16.98186,-1.26051 l 6.30926,-1.23789 -1.1308,-9.11917 c -0.622,-5.01497 -1.70093,-9.56322 -2.39764,-10.10674 -0.69654,-0.54242 -1.67109,-9.88472 -2.16545,-20.75765 -1.02513,-22.54869 -2.55588,-34.59625 -4.39577,-34.59625 -0.69724,0 -1.76594,-4.67086 -2.3748,-10.37909 -3.25931,-30.55759 -13.91938,-105.38146 -21.1946,-148.76397 -7.70187,-45.9274 -11.39222,-66.0624 -22.46473,-122.56951 -6.08916,-31.07493 -13.89923,-64.9815 -15.37692,-66.75673 -3.19437,-3.83788 -22.34973,-5.8814 -33.89723,-3.61624 -11.64491,2.28415 -27.6182,9.86254 -31.00552,14.71019 -1.29703,1.85633 -0.6546,9.32316 2.33456,27.13492 5.15429,30.71191 7.88942,49.4854 13.2293,90.80138 2.31873,17.94056 4.96267,37.95692 5.87529,44.48043 2.15345,15.39291 16.01125,126.98085 25.77831,207.5779 4.21653,34.79344 7.81471,63.81141 7.99595,64.48321 0.18107,0.67233 3.99349,-1.79447 8.47146,-5.48055 z M 817.57359,468.92157 c 0.27629,-15.42456 -0.13632,-54.28767 -0.9186,-86.36343 -2.82192,-115.79207 -1.01719,-264.67396 4.32537,-356.835614 2.41591,-41.676241 2.2706,-55.703179 -0.71632,-69.177119 -1.93864,-8.74455 -3.16401,-10.561587 -10.75081,-15.942087 -12.15041,-8.61715 -24.29777,-12.915576 -40.05215,-14.172703 -16.3155,-1.301785 -30.10987,1.545225 -46.44014,9.584584 l -11.83335,5.825382 -0.98647,144.741223 c -1.31127,192.391224 -6.06207,315.196594 -14.4698,374.029704 -1.70634,11.94075 -2.90278,21.9475 -2.65859,22.23792 0.24455,0.28805 8.24697,-0.88368 17.78384,-2.60806 25.55708,-4.62113 62.60863,-2.95779 80.9066,3.63243 7.49829,2.70071 16.26016,6.7512 19.47052,9.00104 l 5.83724,4.0906 z M 529.29631,220.33091 c 16.22261,-10.41282 44.30228,-15.08547 59.51457,-9.90356 4.23703,1.4432 5.39852,1.2492 5.39852,-0.90209 0,-12.26747 -35.72035,-205.0758779 -56.5764,-305.38389 -7.12129,-34.25029 -13.46099,-65.83172 -14.08795,-70.18099 -2.44073,-16.93079 -14.88876,-69.37437 -17.24456,-72.65212 -2.02597,-2.81868 -5.25496,-3.45963 -17.42682,-3.45963 -13.85642,0 -16.07136,0.58914 -30.53407,8.12299 -18.38326,9.57589 -17.71564,6.98275 -10.7646,41.81307 2.65614,13.30926 6.43605,33.09494 8.39976,43.96806 1.96383,10.87308 4.65907,25.55185 5.98947,32.61928 1.33039,7.06758 7.26261,39.983416 13.18266,73.146417 14.03615,78.6286 47.46409,263.543993 47.94779,265.235903 0.20711,0.72371 2.99762,-0.36683 6.20163,-2.42344 z M 818.52462,-70.598067 c 3.13866,-4.49199 4.21685,-13.260609 2.0175,-16.408284 -3.3577,-4.805365 -5.15579,-26.783989 -6.06125,-74.090939 -0.46807,-24.46451 -1.50032,-45.41066 -2.29375,-46.54699 -1.36038,-1.94847 -2.57672,-48.1392 -6.63727,-251.96924 -0.24537,-12.31063 0.0285,-25.8777 -0.23886,-37.49453 l -86.24522,-0.18876 c -0.61907,45.39519 -2.59739,116.66156 -3.51696,161.24134 -0.91962,44.57972 -2.09221,102.40491 -2.60573,128.50034 -0.51364,26.09549 -1.4274,67.4627 -2.03056,91.92716 -0.60337,24.46456 -0.98017,44.748619 -0.83759,45.075624 0.14324,0.326714 6.52542,-1.417053 14.18383,-3.876162 11.61512,-3.729285 18.20299,-4.476138 39.72312,-4.503493 22.44942,-0.02416 27.31139,0.555947 37.44983,4.501463 6.4081,2.493762 12.47497,4.949487 13.48183,5.457152 1.0069,0.507954 2.63189,-0.223771 3.61108,-1.624681 z M 448.43634,-236.25025 c 11.76169,-9.66539 21.74853,-12.82098 40.49739,-12.79545 20.01269,0.028 18.13142,1.56145 13.33228,-35.46049 -7.26908,-56.07622 -21.82595,-139.60321 -36.47349,-212.56209 l -70.97751,0.0919 c 0.66041,3.67142 0.8491,4.0643 1.23517,6.00577 0.94294,4.74223 7.00496,39.31418 13.47096,76.82645 19.70771,114.33427 31.67725,182.68264 32.04371,182.97559 0.19166,0.15422 3.28397,-2.13345 6.87149,-5.08169 z"
     id="path3082"
     inkscape:connector-curvature="0"
     sodipodi:nodetypes="ccsscssccccccsccccccccccccscccccssssscscsscsccscscssscsscscccsccssscsssccscccsscsccssscccsccccscccscc"
     inkscape:export-xdpi="91"
     inkscape:export-ydpi="91" />
</svg>
